<svg width="27" height="24" viewBox="0 0 27 24" fill="none" xmlns="http://www.w3.org/2000/svg">
<path d="M17.4184 10.3396V9.8396C17.2723 9.8396 17.1336 9.90344 17.0386 10.0143C16.9436 10.1252 16.9018 10.2721 16.9243 10.4164L17.4184 10.3396ZM18.8334 19.4385L19.3274 19.3617L19.3274 19.3617L18.8334 19.4385ZM16.8156 21.7678V22.2678H16.816L16.8156 21.7678ZM3.18642 21.7678V21.2678H3.18636L3.18642 21.7678ZM1.16657 19.4385L0.672504 19.3617L0.672496 19.3617L1.16657 19.4385ZM2.58159 10.3396L3.07565 10.4164L3.07565 10.4164L2.58159 10.3396ZM4.60246 8.62496L4.60215 9.12496H4.60246V8.62496ZM15.3995 8.62496V9.12496H15.3996L15.3995 8.62496ZM17.4194 10.3396V10.8396C17.5654 10.8396 17.7041 10.7758 17.7991 10.6649C17.8941 10.554 17.9359 10.4071 17.9134 10.2628L17.4194 10.3396ZM16.9243 10.4164L18.3393 19.5153L19.3274 19.3617L17.9124 10.2628L16.9243 10.4164ZM18.3393 19.5153C18.3729 19.7313 18.3589 19.952 18.2982 20.1622L19.2591 20.4394C19.36 20.0893 19.3834 19.7217 19.3274 19.3617L18.3393 19.5153ZM18.2982 20.1622C18.2376 20.3725 18.1316 20.5677 17.9872 20.7344L18.7431 21.3892C18.982 21.1134 19.1581 20.7894 19.2591 20.4394L18.2982 20.1622ZM17.9872 20.7344C17.8428 20.9011 17.6634 21.0353 17.4611 21.1275L17.8757 22.0375C18.2082 21.886 18.5042 21.6649 18.7431 21.3892L17.9872 20.7344ZM17.4611 21.1275C17.2587 21.2197 17.0383 21.2676 16.8151 21.2678L16.816 22.2678C17.1817 22.2675 17.5432 22.189 17.8757 22.0375L17.4611 21.1275ZM16.8156 21.2678H3.18642V22.2678H16.8156V21.2678ZM3.18636 21.2678C2.96303 21.2678 2.74249 21.2201 2.53992 21.128L2.12598 22.0383C2.45882 22.1896 2.82057 22.2679 3.18648 22.2678L3.18636 21.2678ZM2.53992 21.128C2.33737 21.0359 2.15777 20.9017 2.01321 20.735L1.2577 21.3901C1.49686 21.6659 1.79313 21.8869 2.12598 22.0383L2.53992 21.128ZM2.01321 20.735C1.86867 20.5683 1.76256 20.373 1.70181 20.1626L0.741055 20.44C0.842176 20.7902 1.01853 21.1143 1.2577 21.3901L2.01321 20.735ZM1.70181 20.1626C1.64107 19.9522 1.62704 19.7314 1.66063 19.5153L0.672496 19.3617C0.616523 19.7219 0.639931 20.0897 0.741055 20.44L1.70181 20.1626ZM1.66063 19.5153L3.07565 10.4164L2.08752 10.2628L0.672504 19.3617L1.66063 19.5153ZM3.07565 10.4164C3.13132 10.0582 3.31491 9.73054 3.59462 9.49322L2.94766 8.7307C2.48595 9.12244 2.18031 9.66576 2.08752 10.2628L3.07565 10.4164ZM3.59462 9.49322C3.87446 9.25578 4.23185 9.12473 4.60215 9.12496L4.60277 8.12496C3.99642 8.12459 3.40924 8.33906 2.94766 8.7307L3.59462 9.49322ZM4.60246 9.12496H15.3995V8.12496H4.60246V9.12496ZM15.3996 9.12496C15.7698 9.12492 16.127 9.25605 16.4066 9.49347L17.0538 8.73111C16.5925 8.3395 16.0056 8.12489 15.3995 8.12496L15.3996 9.12496ZM16.4066 9.49347C16.6862 9.73077 16.8697 10.0584 16.9253 10.4164L17.9134 10.2628C17.8207 9.66598 17.5152 9.12282 17.0538 8.73111L16.4066 9.49347ZM17.4194 9.8396H17.4184V10.8396H17.4194V9.8396ZM7.35168 8.69848C7.59863 7.03712 8.89729 6.21244 10.2467 6.21424C11.5989 6.21604 12.9298 7.04934 13.2218 8.71147L14.2067 8.53845C13.8184 6.3279 12.0098 5.21658 10.248 5.21424C8.48347 5.21189 6.69372 6.32355 6.36254 8.55144L7.35168 8.69848Z" fill="black"/>
<rect x="12" width="15" height="15" rx="7.5" fill="black"/>
<path d="M16.75 9.29H19.82V11H20.7V9.29H21.73V8.52H20.7V3.99H19.96L16.75 8.43V9.29ZM17.56 8.52L19.81 5.36V8.52H17.56Z" fill="white"/>
</svg>
