<svg xmlns="http://www.w3.org/2000/svg" xmlns:xlink="http://www.w3.org/1999/xlink"><symbol id="cart" viewBox="0 0 27 24"><g fill="none">
<path d="M17.4184 10.3396V9.8396C17.2723 9.8396 17.1336 9.90344 17.0386 10.0143C16.9436 10.1252 16.9018 10.2721 16.9243 10.4164L17.4184 10.3396ZM18.8334 19.4385L19.3274 19.3617L19.3274 19.3617L18.8334 19.4385ZM16.8156 21.7678V22.2678H16.816L16.8156 21.7678ZM3.18642 21.7678V21.2678H3.18636L3.18642 21.7678ZM1.16657 19.4385L0.672504 19.3617L0.672496 19.3617L1.16657 19.4385ZM2.58159 10.3396L3.07565 10.4164L3.07565 10.4164L2.58159 10.3396ZM4.60246 8.62496L4.60215 9.12496H4.60246V8.62496ZM15.3995 8.62496V9.12496H15.3996L15.3995 8.62496ZM17.4194 10.3396V10.8396C17.5654 10.8396 17.7041 10.7758 17.7991 10.6649C17.8941 10.554 17.9359 10.4071 17.9134 10.2628L17.4194 10.3396ZM16.9243 10.4164L18.3393 19.5153L19.3274 19.3617L17.9124 10.2628L16.9243 10.4164ZM18.3393 19.5153C18.3729 19.7313 18.3589 19.952 18.2982 20.1622L19.2591 20.4394C19.36 20.0893 19.3834 19.7217 19.3274 19.3617L18.3393 19.5153ZM18.2982 20.1622C18.2376 20.3725 18.1316 20.5677 17.9872 20.7344L18.7431 21.3892C18.982 21.1134 19.1581 20.7894 19.2591 20.4394L18.2982 20.1622ZM17.9872 20.7344C17.8428 20.9011 17.6634 21.0353 17.4611 21.1275L17.8757 22.0375C18.2082 21.886 18.5042 21.6649 18.7431 21.3892L17.9872 20.7344ZM17.4611 21.1275C17.2587 21.2197 17.0383 21.2676 16.8151 21.2678L16.816 22.2678C17.1817 22.2675 17.5432 22.189 17.8757 22.0375L17.4611 21.1275ZM16.8156 21.2678H3.18642V22.2678H16.8156V21.2678ZM3.18636 21.2678C2.96303 21.2678 2.74249 21.2201 2.53992 21.128L2.12598 22.0383C2.45882 22.1896 2.82057 22.2679 3.18648 22.2678L3.18636 21.2678ZM2.53992 21.128C2.33737 21.0359 2.15777 20.9017 2.01321 20.735L1.2577 21.3901C1.49686 21.6659 1.79313 21.8869 2.12598 22.0383L2.53992 21.128ZM2.01321 20.735C1.86867 20.5683 1.76256 20.373 1.70181 20.1626L0.741055 20.44C0.842176 20.7902 1.01853 21.1143 1.2577 21.3901L2.01321 20.735ZM1.70181 20.1626C1.64107 19.9522 1.62704 19.7314 1.66063 19.5153L0.672496 19.3617C0.616523 19.7219 0.639931 20.0897 0.741055 20.44L1.70181 20.1626ZM1.66063 19.5153L3.07565 10.4164L2.08752 10.2628L0.672504 19.3617L1.66063 19.5153ZM3.07565 10.4164C3.13132 10.0582 3.31491 9.73054 3.59462 9.49322L2.94766 8.7307C2.48595 9.12244 2.18031 9.66576 2.08752 10.2628L3.07565 10.4164ZM3.59462 9.49322C3.87446 9.25578 4.23185 9.12473 4.60215 9.12496L4.60277 8.12496C3.99642 8.12459 3.40924 8.33906 2.94766 8.7307L3.59462 9.49322ZM4.60246 9.12496H15.3995V8.12496H4.60246V9.12496ZM15.3996 9.12496C15.7698 9.12492 16.127 9.25605 16.4066 9.49347L17.0538 8.73111C16.5925 8.3395 16.0056 8.12489 15.3995 8.12496L15.3996 9.12496ZM16.4066 9.49347C16.6862 9.73077 16.8697 10.0584 16.9253 10.4164L17.9134 10.2628C17.8207 9.66598 17.5152 9.12282 17.0538 8.73111L16.4066 9.49347ZM17.4194 9.8396H17.4184V10.8396H17.4194V9.8396ZM7.35168 8.69848C7.59863 7.03712 8.89729 6.21244 10.2467 6.21424C11.5989 6.21604 12.9298 7.04934 13.2218 8.71147L14.2067 8.53845C13.8184 6.3279 12.0098 5.21658 10.248 5.21424C8.48347 5.21189 6.69372 6.32355 6.36254 8.55144L7.35168 8.69848Z" fill="black"/>
<rect x="12" width="15" height="15" rx="7.5" fill="black"/>
<path d="M16.75 9.29H19.82V11H20.7V9.29H21.73V8.52H20.7V3.99H19.96L16.75 8.43V9.29ZM17.56 8.52L19.81 5.36V8.52H17.56Z" fill="white"/>
</g></symbol><symbol id="icon-close" viewBox="0 0 20 20"><g fill="none"><path d="M.293 18.291a1 1 0 101.414 1.414L10 11.413l8.292 8.292a1 1 0 101.414-1.414l-8.292-8.292 8.292-8.292A1 1 0 1018.291.293L9.999 8.585 1.707.293A1 1 0 10.293 1.707L8.585 10 .293 18.291z"/></g></symbol><symbol id="like" viewBox="0 0 27 24"><g fill="none">
<path d="M16.9089 14.8218L10.0077 21.7143L3.10655 14.8218C2.65135 14.3751 2.2928 13.8382 2.05347 13.245C1.81415 12.6517 1.69923 12.0148 1.71595 11.3746C1.73268 10.7343 1.88068 10.1044 2.15065 9.52468C2.42062 8.94492 2.8067 8.42782 3.28459 8.00592C3.76247 7.58402 4.32181 7.26648 4.92737 7.07328C5.53293 6.88008 6.1716 6.81541 6.80317 6.88335C7.43473 6.95129 8.0455 7.15036 8.59702 7.46803C9.14854 7.7857 9.62886 8.21509 10.0077 8.72915C10.3883 8.21882 10.8691 7.79319 11.4203 7.47889C11.9714 7.16459 12.581 6.96839 13.2107 6.90258C13.8405 6.83676 14.477 6.90274 15.0804 7.09639C15.6837 7.29004 16.2409 7.60719 16.7171 8.02799C17.1933 8.44879 17.5783 8.96418 17.8479 9.5419C18.1175 10.1196 18.2659 10.7472 18.2839 11.3855C18.3019 12.0237 18.1891 12.6588 17.9525 13.2511C17.7159 13.8433 17.3606 14.38 16.9089 14.8274" stroke="black" stroke-linecap="round" stroke-linejoin="round"/>
<rect x="12" width="15" height="15" rx="7.5" fill="black"/>
<path d="M17.45 6.91C17.59 7.05 17.78 7.17 18.02 7.27C17.63 7.44 17.33 7.67 17.12 7.96C16.92 8.27 16.82 8.62 16.82 9.04C16.82 9.74 17.06 10.28 17.53 10.64C18 11.01 18.58 11.2 19.25 11.2C20.01 11.2 20.59 10.99 21.01 10.56C21.42 10.13 21.63 9.61 21.63 8.99C21.63 8.47 21.47 8.05 21.16 7.72C21 7.55 20.77 7.4 20.48 7.26C20.74 7.12 20.93 6.97 21.06 6.82C21.28 6.55 21.39 6.19 21.39 5.76C21.39 5.28 21.2 4.87 20.82 4.52C20.44 4.16 19.91 3.99 19.24 3.99C18.55 3.99 18.01 4.17 17.63 4.55C17.26 4.93 17.07 5.37 17.07 5.89C17.07 6.31 17.19 6.65 17.45 6.91ZM20.13 6.61C19.91 6.83 19.61 6.94 19.22 6.94C18.89 6.94 18.6 6.84 18.36 6.66C18.11 6.47 17.99 6.21 17.99 5.89C17.99 5.59 18.08 5.34 18.27 5.12C18.46 4.9 18.77 4.79 19.19 4.79C19.62 4.79 19.93 4.9 20.14 5.12C20.35 5.34 20.46 5.58 20.46 5.84C20.46 6.14 20.35 6.4 20.13 6.61ZM20.29 10.07C20.02 10.29 19.68 10.4 19.27 10.4C18.77 10.4 18.39 10.27 18.15 10C17.91 9.74 17.78 9.42 17.78 9.06C17.78 8.63 17.92 8.3 18.18 8.06C18.45 7.82 18.79 7.7 19.21 7.7C19.64 7.7 20 7.82 20.27 8.06C20.55 8.29 20.69 8.63 20.69 9.09C20.69 9.52 20.56 9.85 20.29 10.07Z" fill="white"/>
</g></symbol><symbol id="Logo" viewBox="0 0 100 22"><g fill="none">
<path d="M5.22161 18.7068C5.22161 19.3632 5.29031 19.8385 5.42772 20.1327C5.56514 20.427 5.81705 20.6307 6.18348 20.7438C6.54991 20.8344 7.14536 20.8796 7.96982 20.8796H11.7143C13.0197 20.8796 14.0617 20.4835 14.8404 19.6914C15.619 18.8992 16.1343 17.8014 16.3862 16.3981C16.3862 16.3302 16.4435 16.3076 16.558 16.3302C16.6954 16.3302 16.7641 16.3642 16.7641 16.4321C16.558 18.3107 16.4549 19.8611 16.4549 21.0833C16.4549 21.2644 16.4206 21.4002 16.3519 21.4907C16.2832 21.5586 16.1458 21.5926 15.9396 21.5926H0.0687054C0.0229018 21.5926 0 21.5247 0 21.3889C0 21.2531 0.0229018 21.1852 0.0687054 21.1852C0.938973 21.1852 1.56877 21.1286 1.9581 21.0154C2.37034 20.9023 2.64516 20.6872 2.78257 20.3704C2.91998 20.0309 2.98868 19.5216 2.98868 18.8426V3.12346C2.98868 2.44445 2.91998 1.9465 2.78257 1.62963C2.64516 1.31276 2.37034 1.09774 1.9581 0.984567C1.56877 0.848765 0.938973 0.780864 0.0687054 0.780864C0.0229018 0.780864 0 0.712963 0 0.577161C0 0.441359 0.0229018 0.373458 0.0687054 0.373458L1.75199 0.407408C2.71386 0.452675 3.49252 0.475309 4.08797 0.475309C4.72922 0.475309 5.53078 0.452675 6.49266 0.407408L8.14159 0.373458C8.21029 0.373458 8.24464 0.441359 8.24464 0.577161C8.24464 0.712963 8.21029 0.780864 8.14159 0.780864C7.29422 0.780864 6.66442 0.848765 6.25219 0.984567C5.86286 1.09774 5.58804 1.32407 5.42772 1.66358C5.29031 1.98045 5.22161 2.4784 5.22161 3.15741V18.7068Z" fill="black"/>
<path d="M32.2102 22C30.0803 22 28.1794 21.5134 26.5076 20.5401C24.8587 19.5442 23.5762 18.2088 22.6601 16.534C21.7669 14.8364 21.3204 12.9918 21.3204 11C21.3204 8.66873 21.9158 6.67695 23.1067 5.02469C24.2976 3.34979 25.8206 2.09362 27.6756 1.25617C29.5536 0.418724 31.4659 0 33.4125 0C35.5882 0 37.5005 0.509259 39.1494 1.52778C40.7983 2.52366 42.0579 3.84774 42.9282 5.5C43.8214 7.15226 44.268 8.90638 44.268 10.7623C44.268 12.822 43.7183 14.7119 42.619 16.4321C41.5197 18.1523 40.0426 19.5103 38.1875 20.5062C36.3554 21.5021 34.3629 22 32.2102 22ZM33.4125 21.287C34.9698 21.287 36.3668 20.9136 37.6035 20.1667C38.8631 19.4198 39.8479 18.322 40.5579 16.8735C41.2907 15.4249 41.6572 13.7047 41.6572 11.713C41.6572 9.58539 41.2564 7.69547 40.4548 6.04321C39.6532 4.39095 38.5196 3.10082 37.0539 2.17284C35.6111 1.24486 33.9163 0.780864 31.9697 0.780864C29.4505 0.780864 27.4809 1.58436 26.061 3.19136C24.6411 4.79835 23.9312 7.00514 23.9312 9.81173C23.9312 11.9393 24.3319 13.8858 25.1335 15.6512C25.9351 17.394 27.0573 18.7747 28.5001 19.7932C29.9429 20.7891 31.5804 21.287 33.4125 21.287Z" fill="black"/>
<path d="M62.305 22C59.8087 22 57.633 21.5247 55.7779 20.5741C53.9229 19.6235 52.503 18.3333 51.5182 16.7037C50.5563 15.0741 50.0754 13.2521 50.0754 11.2377C50.0754 9.04218 50.6365 7.09568 51.7587 5.39815C52.9038 3.70062 54.4611 2.37654 56.4306 1.42593C58.4231 0.475309 60.6675 0 63.1638 0C64.286 0 65.3509 0.113169 66.3586 0.339506C67.3892 0.54321 68.2251 0.837449 68.8663 1.22222C69.0495 1.33539 69.1526 1.43724 69.1755 1.52778C69.2213 1.59568 69.2556 1.75412 69.2785 2.00309L69.6908 5.80556C69.6908 5.87346 69.6221 5.91872 69.4847 5.94136C69.3702 5.94136 69.3015 5.90741 69.2785 5.83951C68.7747 4.20988 67.8586 2.9537 66.5303 2.07099C65.2249 1.18827 63.6104 0.746914 61.6866 0.746914C58.801 0.746914 56.5681 1.57305 54.9878 3.22531C53.4076 4.87757 52.6175 7.14095 52.6175 10.0154C52.6175 12.2109 53.0641 14.18 53.9572 15.9228C54.8733 17.643 56.1329 18.9897 57.736 19.963C59.3392 20.9362 61.137 21.4228 63.1294 21.4228C64.2974 21.4228 65.202 21.321 65.8433 21.1173C66.4845 20.9136 66.954 20.5175 67.2517 19.929C67.5495 19.3405 67.6983 18.4691 67.6983 17.3148C67.6983 16.1379 67.6182 15.323 67.4579 14.8704C67.3204 14.3951 66.9884 14.0782 66.4616 13.9198C65.9578 13.7613 65.0761 13.6821 63.8165 13.6821C63.6791 13.6821 63.6104 13.5916 63.6104 13.4105C63.6104 13.3426 63.6218 13.286 63.6447 13.2407C63.6905 13.1728 63.7363 13.1389 63.7821 13.1389C65.5685 13.2521 67.0113 13.3086 68.1106 13.3086C69.1869 13.3086 70.3091 13.2747 71.4771 13.2068C71.5229 13.2068 71.5573 13.2407 71.5802 13.3086C71.626 13.3539 71.6489 13.3992 71.6489 13.4444C71.6489 13.6029 71.5916 13.6821 71.4771 13.6821C70.9275 13.6595 70.5381 13.7387 70.3091 13.9198C70.0801 14.0782 69.9312 14.4177 69.8625 14.9383C69.7938 15.4588 69.7595 16.3642 69.7595 17.6543C69.7595 18.6728 69.7938 19.3971 69.8625 19.8272C69.9541 20.2572 70 20.5288 70 20.642C70 20.7778 69.9771 20.8683 69.9312 20.9136C69.8854 20.9588 69.7824 21.0041 69.6221 21.0494C66.851 21.6831 64.4119 22 62.305 22Z" fill="black"/>
<path d="M87.9422 22C85.8123 22 83.9115 21.5134 82.2397 20.5401C80.5907 19.5442 79.3082 18.2088 78.3922 16.534C77.499 14.8364 77.0524 12.9918 77.0524 11C77.0524 8.66873 77.6479 6.67695 78.8388 5.02469C80.0296 3.34979 81.5526 2.09362 83.4077 1.25617C85.2856 0.418724 87.1979 0 89.1446 0C91.3202 0 93.2325 0.509259 94.8815 1.52778C96.5304 2.52366 97.79 3.84774 98.6603 5.5C99.5534 7.15226 100 8.90638 100 10.7623C100 12.822 99.4504 14.7119 98.3511 16.4321C97.2518 18.1523 95.7746 19.5103 93.9196 20.5062C92.0874 21.5021 90.095 22 87.9422 22ZM89.1446 21.287C90.7019 21.287 92.0989 20.9136 93.3356 20.1667C94.5952 19.4198 95.58 18.322 96.2899 16.8735C97.0228 15.4249 97.3892 13.7047 97.3892 11.713C97.3892 9.58539 96.9884 7.69547 96.1869 6.04321C95.3853 4.39095 94.2517 3.10082 92.7859 2.17284C91.3431 1.24486 89.6484 0.780864 87.7017 0.780864C85.1825 0.780864 83.213 1.58436 81.7931 3.19136C80.3732 4.79835 79.6632 7.00514 79.6632 9.81173C79.6632 11.9393 80.064 13.8858 80.8656 15.6512C81.6671 17.394 82.7893 18.7747 84.2321 19.7932C85.6749 20.7891 87.3124 21.287 89.1446 21.287Z" fill="black"/>
</g></symbol><symbol id="search" viewBox="0 0 20 20"><g fill="none">
<path d="M14.6033 14.6031L18.2858 18.2857" stroke="black" stroke-linejoin="round"/>
<path d="M16.4444 9.07927C16.4444 13.1469 13.147 16.4443 9.07939 16.4443C5.01179 16.4443 1.71436 13.1469 1.71436 9.07927C1.71436 5.01167 5.01179 1.71423 9.07939 1.71423C13.147 1.71423 16.4444 5.01167 16.4444 9.07927Z" stroke="black"/>
</g></symbol><symbol id="user" viewBox="0 0 20 20"><g fill="none">
<path d="M15.806 7.51997C15.806 10.7586 13.1821 13.3263 9.9289 13.3263C6.67572 13.3263 4.05176 10.7586 4.05176 7.51997C4.05176 4.27411 6.68304 1.64282 9.9289 1.64282C13.1748 1.64282 15.806 4.27411 15.806 7.51997Z" stroke="black"/>
<path d="M1.14282 19.0743V19.0743C4.96511 12.061 15.0348 12.061 18.8571 19.0743V19.0743" stroke="black"/>
</g></symbol></svg>