<svg width="20" height="20" viewBox="0 0 20 20" fill="none" xmlns="http://www.w3.org/2000/svg">
<path d="M17.4184 6.33966V5.83966C17.2723 5.83966 17.1336 5.9035 17.0386 6.0144C16.9436 6.12531 16.9018 6.2722 16.9243 6.41649L17.4184 6.33966ZM18.8334 15.4386L19.3274 15.3618L19.3274 15.3617L18.8334 15.4386ZM16.8156 17.7679V18.2679H16.816L16.8156 17.7679ZM3.18642 17.7679V17.2679H3.18636L3.18642 17.7679ZM1.16657 15.4386L0.672504 15.3617L0.672496 15.3618L1.16657 15.4386ZM2.58159 6.33966L3.07565 6.41649L3.07565 6.41644L2.58159 6.33966ZM4.60246 4.62502L4.60215 5.12502H4.60246V4.62502ZM15.3995 4.62502V5.12502H15.3996L15.3995 4.62502ZM17.4194 6.33966V6.83966C17.5654 6.83966 17.7041 6.77583 17.7991 6.66494C17.8941 6.55404 17.9359 6.40716 17.9134 6.26288L17.4194 6.33966ZM16.9243 6.41649L18.3393 15.5154L19.3274 15.3617L17.9124 6.26283L16.9243 6.41649ZM18.3393 15.5153C18.3729 15.7314 18.3589 15.952 18.2982 16.1623L19.2591 16.4394C19.36 16.0894 19.3834 15.7217 19.3274 15.3618L18.3393 15.5153ZM18.2982 16.1623C18.2376 16.3726 18.1316 16.5678 17.9872 16.7345L18.7431 17.3892C18.982 17.1135 19.1581 16.7895 19.2591 16.4394L18.2982 16.1623ZM17.9872 16.7345C17.8428 16.9011 17.6634 17.0353 17.4611 17.1275L17.8757 18.0375C18.2082 17.886 18.5042 17.665 18.7431 17.3892L17.9872 16.7345ZM17.4611 17.1275C17.2587 17.2198 17.0383 17.2677 16.8151 17.2679L16.816 18.2679C17.1817 18.2676 17.5431 18.1891 17.8757 18.0375L17.4611 17.1275ZM16.8156 17.2679H3.18642V18.2679H16.8156V17.2679ZM3.18636 17.2679C2.96303 17.2679 2.74249 17.2201 2.53992 17.128L2.12598 18.0383C2.45882 18.1897 2.82057 18.2679 3.18648 18.2679L3.18636 17.2679ZM2.53992 17.128C2.33737 17.0359 2.15777 16.9017 2.01321 16.735L1.2577 17.3902C1.49686 17.666 1.79313 17.887 2.12598 18.0383L2.53992 17.128ZM2.01321 16.735C1.86867 16.5684 1.76256 16.3731 1.70181 16.1627L0.741055 16.4401C0.842176 16.7903 1.01853 17.1144 1.2577 17.3902L2.01321 16.735ZM1.70181 16.1627C1.64107 15.9523 1.62704 15.7315 1.66063 15.5153L0.672496 15.3618C0.616523 15.7219 0.639931 16.0898 0.741055 16.4401L1.70181 16.1627ZM1.66063 15.5154L3.07565 6.41649L2.08752 6.26283L0.672504 15.3617L1.66063 15.5154ZM3.07565 6.41644C3.13132 6.05829 3.31491 5.7306 3.59462 5.49328L2.94766 4.73076C2.48595 5.1225 2.18031 5.66583 2.08752 6.26288L3.07565 6.41644ZM3.59462 5.49328C3.87446 5.25585 4.23185 5.1248 4.60215 5.12502L4.60277 4.12502C3.99642 4.12465 3.40924 4.33912 2.94766 4.73076L3.59462 5.49328ZM4.60246 5.12502H15.3995V4.12502H4.60246V5.12502ZM15.3996 5.12502C15.7698 5.12498 16.127 5.25611 16.4066 5.49353L17.0538 4.73117C16.5925 4.33956 16.0056 4.12495 15.3995 4.12502L15.3996 5.12502ZM16.4066 5.49353C16.6862 5.73084 16.8697 6.05842 16.9253 6.41644L17.9134 6.26288C17.8207 5.66604 17.5152 5.12289 17.0538 4.73117L16.4066 5.49353ZM17.4194 5.83966H17.4184V6.83966H17.4194V5.83966ZM7.35168 4.69854C7.59863 3.03718 8.89729 2.2125 10.2467 2.2143C11.5989 2.2161 12.9298 3.0494 13.2218 4.71153L14.2067 4.53851C13.8184 2.32796 12.0098 1.21664 10.248 1.2143C8.48347 1.21195 6.69372 2.32361 6.36254 4.55151L7.35168 4.69854Z" fill="black"/>
</svg>
