<svg width="27" height="24" viewBox="0 0 27 24" fill="none" xmlns="http://www.w3.org/2000/svg">
<path d="M16.9089 14.8218L10.0077 21.7143L3.10655 14.8218C2.65135 14.3751 2.2928 13.8382 2.05347 13.245C1.81415 12.6517 1.69923 12.0148 1.71595 11.3746C1.73268 10.7343 1.88068 10.1044 2.15065 9.52468C2.42062 8.94492 2.8067 8.42782 3.28459 8.00592C3.76247 7.58402 4.32181 7.26648 4.92737 7.07328C5.53293 6.88008 6.1716 6.81541 6.80317 6.88335C7.43473 6.95129 8.0455 7.15036 8.59702 7.46803C9.14854 7.7857 9.62886 8.21509 10.0077 8.72915C10.3883 8.21882 10.8691 7.79319 11.4203 7.47889C11.9714 7.16459 12.581 6.96839 13.2107 6.90258C13.8405 6.83676 14.477 6.90274 15.0804 7.09639C15.6837 7.29004 16.2409 7.60719 16.7171 8.02799C17.1933 8.44879 17.5783 8.96418 17.8479 9.5419C18.1175 10.1196 18.2659 10.7472 18.2839 11.3855C18.3019 12.0237 18.1891 12.6588 17.9525 13.2511C17.7159 13.8433 17.3606 14.38 16.9089 14.8274" stroke="black" stroke-linecap="round" stroke-linejoin="round"/>
<rect x="12" width="15" height="15" rx="7.5" fill="black"/>
<path d="M17.45 6.91C17.59 7.05 17.78 7.17 18.02 7.27C17.63 7.44 17.33 7.67 17.12 7.96C16.92 8.27 16.82 8.62 16.82 9.04C16.82 9.74 17.06 10.28 17.53 10.64C18 11.01 18.58 11.2 19.25 11.2C20.01 11.2 20.59 10.99 21.01 10.56C21.42 10.13 21.63 9.61 21.63 8.99C21.63 8.47 21.47 8.05 21.16 7.72C21 7.55 20.77 7.4 20.48 7.26C20.74 7.12 20.93 6.97 21.06 6.82C21.28 6.55 21.39 6.19 21.39 5.76C21.39 5.28 21.2 4.87 20.82 4.52C20.44 4.16 19.91 3.99 19.24 3.99C18.55 3.99 18.01 4.17 17.63 4.55C17.26 4.93 17.07 5.37 17.07 5.89C17.07 6.31 17.19 6.65 17.45 6.91ZM20.13 6.61C19.91 6.83 19.61 6.94 19.22 6.94C18.89 6.94 18.6 6.84 18.36 6.66C18.11 6.47 17.99 6.21 17.99 5.89C17.99 5.59 18.08 5.34 18.27 5.12C18.46 4.9 18.77 4.79 19.19 4.79C19.62 4.79 19.93 4.9 20.14 5.12C20.35 5.34 20.46 5.58 20.46 5.84C20.46 6.14 20.35 6.4 20.13 6.61ZM20.29 10.07C20.02 10.29 19.68 10.4 19.27 10.4C18.77 10.4 18.39 10.27 18.15 10C17.91 9.74 17.78 9.42 17.78 9.06C17.78 8.63 17.92 8.3 18.18 8.06C18.45 7.82 18.79 7.7 19.21 7.7C19.64 7.7 20 7.82 20.27 8.06C20.55 8.29 20.69 8.63 20.69 9.09C20.69 9.52 20.56 9.85 20.29 10.07Z" fill="white"/>
</svg>
